<?xml version="1.0" encoding="UTF-8"?>
<svg xmlns="http://www.w3.org/2000/svg" viewBox="0 0 2000 2000">
  <circle cx="1000" cy="1000" r="1000" fill="#2775CA"/>
  <path fill="#FFFFFF" d="M1275 1158.3c0-145.8-87.5-195.8-262.5-216.7-125-16.7-150-50-150-108.3 0-58.3 41.7-95.8 125-95.8 75 0 116.7 25 137.5 87.5 4.2 12.5 16.7 20.8 29.2 20.8h66.7c16.7 0 29.2-12.5 29.2-29.2v-4.2c-16.7-91.7-91.7-162.5-187.5-175v-100c0-16.7-12.5-29.2-33.3-33.3h-62.5c-16.7 0-29.2 12.5-33.3 33.3v95.8c-125 16.7-204.2 100-204.2 204.2 0 137.5 83.3 191.7 258.3 212.5 116.7 20.8 154.2 50 154.2 112.5s-54.2 104.2-129.2 104.2c-100 0-133.3-41.7-145.8-104.2-4.2-16.7-16.7-25-29.2-25h-70.8c-16.7 0-29.2 12.5-29.2 29.2v4.2c16.7 100 83.3 175 212.5 195.8v100c0 16.7 12.5 29.2 33.3 33.3h62.5c16.7 0 29.2-12.5 33.3-33.3v-100c125-20.8 208.3-108.3 208.3-208.3z"/>
  <path fill="#FFFFFF" d="M787.5 1562.5c-329.2-116.7-500-483.3-379.2-808.3 62.5-175 200-308.3 379.2-375 16.7-8.3 25-20.8 25-41.7v-58.3c0-16.7-8.3-29.2-25-33.3-4.2 0-12.5 0-16.7 4.2-400 125-616.7 554.2-491.7 954.2 75 233.3 254.2 412.5 491.7 491.7 16.7 8.3 33.3 0 37.5-16.7 4.2-4.2 4.2-8.3 4.2-16.7v-58.3c0-12.5-12.5-29.2-25-41.7zM1229.2 245.8c-16.7-8.3-33.3 0-37.5 16.7-4.2 4.2-4.2 8.3-4.2 16.7v58.3c0 16.7 12.5 33.3 25 41.7 329.2 116.7 500 483.3 379.2 808.3-62.5 175-200 308.3-379.2 375-16.7 8.3-25 20.8-25 41.7v58.3c0 16.7 8.3 29.2 25 33.3 4.2 0 12.5 0 16.7-4.2 400-125 616.7-554.2 491.7-954.2-75-237.5-258.3-416.7-491.7-491.7z"/>
</svg>
